<?xml version="1.0" encoding="utf-8"?>
<!-- Generator: Adobe Illustrator 28.0.0, SVG Export Plug-In . SVG Version: 6.00 Build 0)  -->
<svg version="1.1" id="Layer_1" xmlns="http://www.w3.org/2000/svg" xmlns:xlink="http://www.w3.org/1999/xlink" x="0px" y="0px"
	 viewBox="0 0 1000 1000" style="enable-background:new 0 0 1000 1000;" xml:space="preserve">
<style type="text/css">
	.st0{fill:#802BE7;}
</style>
<path class="st0" d="M462.15,622.46l84.79,0.31l-0.14,40.75l-149.18-0.01l0.14-37.96c4.78-4.2,10.35-9.01,16.63-14.49
	c6.34-5.45,12.85-11.15,19.56-17.02c6.7-5.84,13.13-11.46,19.25-16.83c6.09-5.37,11.41-10.07,15.91-14.02
	c4.51-4.01,7.76-6.87,9.79-8.68l-56.02-0.19c-9.01-0.03-15.38-1.7-19.19-5.01c-3.76-3.31-5.65-8.54-5.62-15.74
	c0.03-5.17,0.81-10.04,2.45-14.52c1.61-4.51,2.81-7.46,3.62-8.85l118.64,0.45c6.98,0,12.74,1.98,17.19,5.9
	c4.51,3.89,6.73,9.68,6.7,17.25c0,5.01-1.14,9.43-3.34,13.32c-2.23,3.89-5.73,8.21-10.54,12.99c-1.39,1.42-4.37,4.12-8.85,8.21
	c-4.53,4.09-9.74,8.73-15.63,14.05c-5.93,5.26-11.93,10.63-18.05,16.08c-6.12,5.51-11.66,10.38-16.66,14.63
	C468.57,617.34,464.76,620.49,462.15,622.46z M584.13,442.82c-7.59-0.03-13.91,2.59-18.92,7.73c-5.01,5.17-7.54,11.57-7.57,19.17
	c-0.03,7.37,2.48,13.71,7.43,19.03c4.98,5.34,11.27,7.98,18.86,8.01c7.79,0.03,14.19-2.59,19.19-7.87
	c5.03-5.29,7.51-11.6,7.54-18.97c0.03-7.59-2.42-14.02-7.4-19.22C598.29,445.49,591.92,442.84,584.13,442.82z M585.07,510.83
	c-7.98-0.03-14.19,1.78-18.61,5.34c-4.4,3.59-6.62,8.87-6.65,15.86l-0.44,131.52l48.23,0.17l0.53-148.29
	c-3.39-1.42-7.09-2.53-11.07-3.34C593.06,511.27,589.05,510.86,585.07,510.83z M787.78,464.82l-0.42,117.75
	c-0.06,17.97-3.48,33.41-10.21,46.26c-6.73,12.85-16.27,22.67-28.54,29.4c-12.32,6.76-26.87,10.1-43.65,10.04
	c-17-0.06-31.74-3.56-44.28-10.51c-12.6-6.93-22.28-16.5-29.12-28.71c-6.84-12.18-10.26-26.09-10.21-41.67
	c0.06-15.61,3.39-29.4,10.04-41.48c6.62-12.07,15.55-21.56,26.76-28.51c11.21-6.95,23.73-10.4,37.5-10.38
	c8.98,0.06,17.25,1.53,24.84,4.45c7.59,2.95,13.85,6.98,18.86,12.21l0.25-75.8c3.39-1.39,7.15-2.48,11.27-3.28
	c4.09-0.75,8.04-1.17,11.82-1.14c7.98,0.03,14.19,1.86,18.55,5.45C785.63,452.52,787.8,457.84,787.78,464.82z M739.68,587.49
	c0.06-10.99-3.12-19.83-9.46-26.54c-6.37-6.73-14.66-10.1-24.84-10.13c-10.21-0.06-18.5,3.25-24.9,9.96
	c-6.43,6.65-9.65,15.47-9.71,26.45c-0.03,10.99,3.14,19.83,9.51,26.57c6.34,6.7,14.63,10.07,24.84,10.13
	c10.18,0.03,18.47-3.28,24.9-9.96C736.43,607.3,739.65,598.48,739.68,587.49z M398.49,460.87c-20.49,0.5-40.23-4.95-57.37-15.8
	c-2.91,2.24-5.7,4.69-8.35,7.32c-2.65,2.63-5.12,5.41-7.38,8.29c10.73,17.2,16.04,36.98,15.39,57.48
	c-0.48,15.23-12.52,23.16-24.16,23.12c-11.64-0.04-23.62-8.06-23.99-23.29c-0.5-20.49,4.95-40.23,15.8-57.37
	c-2.24-2.91-4.69-5.7-7.32-8.35c-2.63-2.65-5.41-5.12-8.29-7.38c-17.2,10.73-36.99,16.05-57.48,15.39
	c-15.24-0.48-23.17-12.52-23.12-24.16c0.04-11.64,8.05-23.62,23.29-23.99c20.49-0.51,40.23,4.95,57.37,15.8
	c2.9-2.24,5.7-4.69,8.35-7.32c2.65-2.63,5.12-5.41,7.38-8.29c-10.73-17.2-16.04-36.99-15.39-57.48
	c0.48-15.24,12.52-23.16,24.16-23.12c11.64,0.04,23.62,8.05,23.99,23.29c0.5,20.49-4.95,40.23-15.8,57.37
	c2.24,2.9,4.69,5.7,7.32,8.34c2.63,2.65,5.41,5.12,8.29,7.38c17.2-10.73,36.99-16.05,57.48-15.39
	c15.24,0.48,23.17,12.52,23.12,24.16C421.75,448.52,413.73,460.49,398.49,460.87z M279.72,436.38
	c-12.67-6.76-26.73-10.29-41.29-10.34c-0.86,0-1.72,0-2.58,0.03c-7.15,0.18-9.7,5.57-9.72,10.13c-0.02,4.56,2.5,9.97,9.65,10.2
	C251.26,446.87,266.27,443.43,279.72,436.38z M317.14,399.22c7.15-13.42,10.7-28.39,10.32-43.86c-0.18-7.15-5.57-9.7-10.13-9.72
	c-4.56-0.02-9.97,2.5-10.2,9.65C306.64,370.76,310.08,385.76,317.14,399.22z M316.87,473.79c-7.15,13.42-10.7,28.39-10.32,43.87
	c0.18,7.15,5.57,9.7,10.13,9.72c4.56,0.02,9.97-2.5,10.2-9.65C327.37,502.25,323.93,487.25,316.87,473.79z M329.52,436.55
	c-2.24-1.9-4.41-3.91-6.5-6.01c-2.09-2.1-4.08-4.29-5.97-6.54c-1.9,2.24-3.91,4.41-6.01,6.5c-2.11,2.09-4.29,4.08-6.54,5.97
	c2.24,1.9,4.41,3.91,6.5,6.01c2.09,2.11,4.08,4.29,5.97,6.54c1.9-2.24,3.91-4.41,6.01-6.5
	C325.08,440.43,327.26,438.44,329.52,436.55z M398.15,446.96c7.15-0.18,9.7-5.57,9.72-10.13c0.02-4.56-2.5-9.97-9.65-10.2
	c-15.47-0.49-30.48,2.95-43.94,10.01C367.71,443.79,382.69,447.34,398.15,446.96z"/>
</svg>
